<svg width="335" height="495" viewBox="0 0 335 495" fill="none" xmlns="http://www.w3.org/2000/svg">
<g clip-path="url(#clip0_9_10)">
<path d="M289.225 257.674C276.219 265.974 264.125 275.622 253.144 286.459C242.873 296.687 233.676 307.94 225.699 320.042C161.693 301.657 105.254 263.27 64.6412 210.499C24.0287 157.727 1.37644 93.3429 0 26.7701C0 17.7508 0 8.82741 0.671724 0C20.0236 65.5443 57.2846 124.388 108.262 169.911C159.24 215.433 221.912 245.827 289.225 257.674Z" fill="white" fill-opacity="0.4"/>
<path d="M212.121 343.693C200.09 368.163 192.673 394.639 190.242 421.797C140.787 408.657 96.9497 379.785 65.3488 339.542C33.7479 299.299 16.0987 249.868 15.0658 198.713C14.8852 189.923 15.1896 181.13 15.9775 172.374C34.4452 213.342 61.5243 249.85 95.3712 279.414C129.218 308.977 169.038 330.901 212.121 343.693Z" fill="white" fill-opacity="0.4"/>
<path d="M184.868 457.778C185.217 485.625 190.732 513.166 201.133 539C155.689 522.821 115.778 494.065 86.047 456.082C56.3162 418.098 37.9898 372.451 33.2024 324.455C48.5228 354.172 69.97 380.304 96.1293 401.126C122.289 421.949 152.566 436.99 184.964 445.257C184.964 449.095 184.964 452.885 184.964 456.723L184.868 457.778Z" fill="white" fill-opacity="0.4"/>
<path d="M525 266.597C521.833 264.103 518.523 261.8 515.116 259.401C505.239 252.604 494.73 246.773 483.737 241.986H483.113C475.979 238.886 468.656 236.242 461.186 234.07C414.902 220.525 365.21 224.945 322.043 246.448C317.821 245.968 313.599 245.44 309.377 244.817C277.086 240.006 245.626 230.705 215.911 217.183C255.952 190.419 303.378 176.881 351.515 178.473C399.653 180.065 446.08 196.708 484.265 226.059C484.793 226.538 485.368 226.922 485.896 227.354C489.639 230.28 493.333 233.351 496.836 236.565C499.091 238.532 501.298 240.547 503.457 242.706C508.255 247.503 513.053 252.301 517.563 257.434C520.01 260.457 522.553 263.479 525 266.597Z" fill="white" fill-opacity="0.4"/>
</g>
<defs>
<clipPath id="clip0_9_10">
<rect width="525" height="539" fill="white"/>
</clipPath>
</defs>
</svg>
